<svg width="109" height="28" viewBox="0 0 109 28" fill="none" xmlns="http://www.w3.org/2000/svg">
<g clip-path="url(#clip0_290_1078)">
<rect y="2" width="24" height="24" rx="6" fill="url(#paint0_linear_290_1078)"/>
<path d="M18.5164 6.66386L10.425 7.06845C9.02727 7.13834 7.78776 7.97306 7.27192 9.27403C5.21156 14.4704 0.775723 27.6467 8.15016 29.0123C17.3595 30.7178 35.2558 29.0123 23.9999 29.0123C15.3598 29.0123 18.684 15.7478 20.6957 9.58246C21.1711 8.1257 20.0468 6.58734 18.5164 6.66386Z" fill="url(#paint1_linear_290_1078)" fill-opacity="0.3"/>
<path d="M17.6968 7.77074L8.6179 8.22469C7.22014 8.29459 5.98063 9.12931 5.46479 10.4303C3.40443 15.6266 -1.03141 28.8029 6.34303 30.1686C15.5524 31.8741 33.9716 30.1686 22.7156 30.1686C13.6173 30.1686 17.4444 15.4598 19.2459 9.82075C19.575 8.79057 18.7769 7.71673 17.6968 7.77074Z" fill="url(#paint2_linear_290_1078)"/>
</g>
<path d="M29.6 21V6.8H32.2V21H29.6ZM35.357 21V10.32H37.677L37.737 12.14C38.0304 11.4067 38.457 10.88 39.017 10.56C39.5904 10.24 40.2304 10.08 40.937 10.08C42.1104 10.08 43.0104 10.46 43.637 11.22C44.2637 11.9667 44.577 12.94 44.577 14.14V21H42.017V14.96C42.017 14.0533 41.877 13.36 41.597 12.88C41.3304 12.4 40.8504 12.16 40.157 12.16C39.4637 12.16 38.917 12.4 38.517 12.88C38.117 13.36 37.917 14.0533 37.917 14.96V21H35.357ZM49.6442 21L45.7442 10.32H48.4442L51.1642 18.42L53.8842 10.32H56.5842L52.6842 21H49.6442ZM62.4775 21.24C61.4108 21.24 60.4842 21.0133 59.6975 20.56C58.9108 20.0933 58.2975 19.4467 57.8575 18.62C57.4308 17.78 57.2175 16.7933 57.2175 15.66C57.2175 14.5267 57.4308 13.5467 57.8575 12.72C58.2975 11.88 58.9108 11.2333 59.6975 10.78C60.4842 10.3133 61.4108 10.08 62.4775 10.08C63.5308 10.08 64.4508 10.3133 65.2375 10.78C66.0242 11.2333 66.6308 11.88 67.0575 12.72C67.4975 13.5467 67.7175 14.5267 67.7175 15.66C67.7175 16.7933 67.4975 17.78 67.0575 18.62C66.6308 19.4467 66.0242 20.0933 65.2375 20.56C64.4508 21.0133 63.5308 21.24 62.4775 21.24ZM62.4775 19.16C63.2908 19.16 63.9242 18.8533 64.3775 18.24C64.8308 17.6267 65.0575 16.7667 65.0575 15.66C65.0575 14.5533 64.8308 13.6933 64.3775 13.08C63.9242 12.4667 63.2908 12.16 62.4775 12.16C61.6508 12.16 61.0108 12.4667 60.5575 13.08C60.1042 13.6933 59.8775 14.5533 59.8775 15.66C59.8775 16.7667 60.1042 17.6267 60.5575 18.24C61.0108 18.8533 61.6508 19.16 62.4775 19.16ZM69.693 21V10.32H72.253V21H69.693ZM69.653 8.9V6.62H72.313V8.9H69.653ZM79.5088 21.24C78.4421 21.24 77.5154 21.0133 76.7288 20.56C75.9421 20.0933 75.3288 19.44 74.8888 18.6C74.4621 17.76 74.2488 16.78 74.2488 15.66C74.2488 14.54 74.4621 13.56 74.8888 12.72C75.3288 11.88 75.9421 11.2333 76.7288 10.78C77.5154 10.3133 78.4421 10.08 79.5088 10.08C80.8688 10.08 81.9954 10.4333 82.8888 11.14C83.7954 11.8467 84.3288 12.8333 84.4887 14.1L81.8488 14.24C81.7421 13.56 81.4754 13.0467 81.0488 12.7C80.6354 12.34 80.1221 12.16 79.5088 12.16C78.6821 12.16 78.0421 12.4667 77.5888 13.08C77.1354 13.6933 76.9088 14.5533 76.9088 15.66C76.9088 16.7667 77.1354 17.6267 77.5888 18.24C78.0421 18.8533 78.6821 19.16 79.5088 19.16C80.1354 19.16 80.6554 18.98 81.0688 18.62C81.4954 18.26 81.7554 17.7 81.8488 16.94L84.4887 17.06C84.3421 18.34 83.8154 19.36 82.9088 20.12C82.0154 20.8667 80.8821 21.24 79.5088 21.24ZM90.895 21.24C89.8283 21.24 88.9017 21.0133 88.115 20.56C87.3283 20.0933 86.7217 19.44 86.295 18.6C85.8683 17.76 85.655 16.78 85.655 15.66C85.655 14.54 85.8683 13.56 86.295 12.72C86.7217 11.88 87.3217 11.2333 88.095 10.78C88.8817 10.3133 89.795 10.08 90.835 10.08C91.8483 10.08 92.735 10.3067 93.495 10.76C94.255 11.2133 94.8417 11.8667 95.255 12.72C95.6817 13.5733 95.895 14.6 95.895 15.8V16.38H88.315C88.355 17.3133 88.6083 18.02 89.075 18.5C89.5417 18.9667 90.155 19.2 90.915 19.2C92.075 19.2 92.815 18.7067 93.135 17.72L95.755 17.88C95.4617 18.92 94.8817 19.74 94.015 20.34C93.1617 20.94 92.1217 21.24 90.895 21.24ZM88.315 14.66H93.255C93.1883 13.7933 92.935 13.1533 92.495 12.74C92.0683 12.3133 91.515 12.1 90.835 12.1C90.1417 12.1 89.575 12.32 89.135 12.76C88.695 13.2 88.4217 13.8333 88.315 14.66ZM97.8961 21V10.32H100.216L100.276 12.14C100.569 11.4067 100.996 10.88 101.556 10.56C102.129 10.24 102.769 10.08 103.476 10.08C104.649 10.08 105.549 10.46 106.176 11.22C106.803 11.9667 107.116 12.94 107.116 14.14V21H104.556V14.96C104.556 14.0533 104.416 13.36 104.136 12.88C103.869 12.4 103.389 12.16 102.696 12.16C102.003 12.16 101.456 12.4 101.056 12.88C100.656 13.36 100.456 14.0533 100.456 14.96V21H97.8961Z" fill="white"/>
<defs>
<linearGradient id="paint0_linear_290_1078" x1="12" y1="2" x2="12" y2="26" gradientUnits="userSpaceOnUse">
<stop stop-color="#3B82F6"/>
<stop offset="1" stop-color="#1E40AF"/>
</linearGradient>
<linearGradient id="paint1_linear_290_1078" x1="16.0571" y1="6.5" x2="16.0571" y2="29.7703" gradientUnits="userSpaceOnUse">
<stop stop-color="white"/>
<stop offset="1" stop-color="#CBD5E1"/>
</linearGradient>
<linearGradient id="paint2_linear_290_1078" x1="14.25" y1="7.65625" x2="14.25" y2="30.9266" gradientUnits="userSpaceOnUse">
<stop stop-color="white"/>
<stop offset="1" stop-color="#CBD5E1"/>
</linearGradient>
<clipPath id="clip0_290_1078">
<rect y="2" width="24" height="24" rx="6" fill="white"/>
</clipPath>
</defs>
</svg>
